_RobotoSerifText-RegularWdth1500.ufo
<glyph name="percent" format="2">
  <advance width="908.22"/>
  <unicode hex="0025"/>
  <outline>
    <contour>
      <point x="226.36" y="720.0" type="curve" smooth="yes"/>
      <point x="118.18" y="720.0"/>
      <point x="40.699999999999996" y="647.9"/>
      <point x="40.699999999999996" y="550.75" type="curve" smooth="yes"/>
      <point x="40.699999999999996" y="452.6"/>
      <point x="118.18" y="381.5"/>
      <point x="226.36" y="381.5" type="curve" smooth="yes"/>
      <point x="334.20000000000005" y="381.5"/>
      <point x="411.68" y="453.6"/>
      <point x="411.68" y="550.75" type="curve" smooth="yes"/>
      <point x="411.68" y="648.9"/>
      <point x="334.20000000000005" y="720.0"/>
    </contour>
    <contour>
      <point x="226.36" y="429.9" type="curve" smooth="yes"/>
      <point x="163.26" y="429.9"/>
      <point x="124.8" y="478.3"/>
      <point x="124.8" y="550.75" type="curve" smooth="yes"/>
      <point x="124.8" y="623.15"/>
      <point x="163.26" y="671.5"/>
      <point x="226.36" y="671.5" type="curve" smooth="yes"/>
      <point x="289.12" y="671.5"/>
      <point x="327.58000000000004" y="623.15"/>
      <point x="327.58000000000004" y="550.75" type="curve" smooth="yes"/>
      <point x="327.58000000000004" y="478.3"/>
      <point x="289.12" y="429.9"/>
    </contour>
    <contour>
      <point x="680.8199999999999" y="328.5" type="curve" smooth="yes"/>
      <point x="572.56" y="328.5"/>
      <point x="495.5" y="256.4"/>
      <point x="495.5" y="159.25" type="curve" smooth="yes"/>
      <point x="495.5" y="61.1"/>
      <point x="572.56" y="-10.0"/>
      <point x="680.8199999999999" y="-10.0" type="curve" smooth="yes"/>
      <point x="789.0" y="-10.0"/>
      <point x="866.06" y="62.1"/>
      <point x="866.06" y="159.25" type="curve" smooth="yes"/>
      <point x="866.06" y="257.4"/>
      <point x="789.0" y="328.5"/>
    </contour>
    <contour>
      <point x="680.8199999999999" y="38.4" type="curve" smooth="yes"/>
      <point x="618.06" y="38.4"/>
      <point x="579.5999999999999" y="86.8"/>
      <point x="579.5999999999999" y="159.25" type="curve" smooth="yes"/>
      <point x="579.5999999999999" y="231.65"/>
      <point x="618.06" y="280.0"/>
      <point x="680.8199999999999" y="280.0" type="curve" smooth="yes"/>
      <point x="743.5" y="280.0"/>
      <point x="781.96" y="231.65"/>
      <point x="781.96" y="159.25" type="curve" smooth="yes"/>
      <point x="781.96" y="86.8"/>
      <point x="743.5" y="38.4"/>
    </contour>
    <component base="fraction" xOffset="242.32"/>
  </outline>
</glyph>
<glyph name="parenleft" format="2">
  <advance width="382.0"/>
  <unicode hex="0028"/>
  <outline>
    <contour>
      <point x="156.98000000000002" y="310.0" type="curve" smooth="yes"/>
      <point x="156.98000000000002" y="111.1"/>
      <point x="270.42" y="-48.07311188253226"/>
      <point x="372.66" y="-127.0" type="curve"/>
      <point x="372.66" y="-130.0" type="line"/>
      <point x="299.06" y="-130.0" type="line"/>
      <point x="172.62" y="-50.05"/>
      <point x="60.84" y="117.9"/>
      <point x="60.84" y="310.0" type="curve" smooth="yes"/>
      <point x="60.84" y="502.1"/>
      <point x="172.62" y="670.05"/>
      <point x="299.06" y="750.0" type="curve"/>
      <point x="372.66" y="750.0" type="line"/>
      <point x="372.66" y="747.0" type="line"/>
      <point x="270.42" y="668.0731118825322"/>
      <point x="156.98000000000002" y="508.9"/>
    </contour>
  </outline>
</glyph>
<glyph name="five" format="2">
  <advance width="658.0"/>
  <unicode hex="0035"/>
  <outline>
    <contour>
      <point x="315.98" y="-90.0" type="curve"/>
      <point x="168.66" y="-90.0"/>
      <point x="80.82" y="-23.75"/>
      <point x="36.620000000000005" y="52.2" type="curve"/>
      <point x="91.34" y="93.1" type="line"/>
      <point x="126.75999999999999" y="40.11649981007749"/>
      <point x="187.7" y="-27.950000000000003"/>
      <point x="315.98" y="-27.950000000000003" type="curve"/>
      <point x="431.20000000000005" y="-27.950000000000003"/>
      <point x="505.8" y="39.1"/>
      <point x="505.8" y="147.3" type="curve" smooth="yes"/>
      <point x="505.8" y="247.1"/>
      <point x="429.84" y="304.35"/>
      <point x="335.82" y="304.35" type="curve" smooth="yes"/>
      <point x="263.14" y="304.35"/>
      <point x="205.24" y="281.15"/>
      <point x="160.89999999999998" y="238.05" type="curve"/>
      <point x="101.84" y="238.05" type="line"/>
      <point x="101.84" y="609.0" type="line"/>
      <point x="557.04" y="609.0" type="line"/>
      <point x="531.0" y="527.85" type="line"/>
      <point x="142.42000000000002" y="527.85" type="line"/>
      <point x="170.84" y="589.0" type="line"/>
      <point x="170.84" y="276.0" type="line"/>
      <point x="167.34" y="265.8"/>
      <point x="145.64" y="258.0"/>
      <point x="143.8" y="279.35" type="curve"/>
      <point x="186.32" y="333.4"/>
      <point x="263.53999999999996" y="366.0"/>
      <point x="351.82" y="366.0" type="curve" smooth="yes"/>
      <point x="509.56" y="366.0"/>
      <point x="606.78" y="264.5"/>
      <point x="606.78" y="147.25" type="curve" smooth="yes"/>
      <point x="606.78" y="6.850000000000001"/>
      <point x="491.12" y="-90.0"/>
    </contour>
  </outline>
</glyph>
<glyph name="Q" format="2">
  <advance width="924.2"/>
  <unicode hex="0051"/>
  <outline>
    <contour>
      <point x="422.0" y="2.9999999999999982" type="line"/>
      <point x="416.12" y="-133.7999686818"/>
      <point x="521.8" y="-186.65"/>
      <point x="671.72" y="-186.65" type="curve" smooth="yes"/>
      <point x="728.8199999999999" y="-186.65"/>
      <point x="784.06" y="-180.15"/>
      <point x="836.22" y="-169.6" type="curve"/>
      <point x="836.22" y="-75.25" type="line"/>
      <point x="777.9000000000001" y="-90.15"/>
      <point x="732.72" y="-103.95"/>
      <point x="657.1800000000001" y="-103.95" type="curve" smooth="yes"/>
      <point x="557.48" y="-103.95"/>
      <point x="490.03999999999996" y="-73.7496708950425"/>
      <point x="495.64" y="10.0" type="curve"/>
    </contour>
    <contour>
      <point x="462.02" y="-10.0" type="curve" smooth="yes"/>
      <point x="691.44" y="-10.0"/>
      <point x="868.7" y="138.7"/>
      <point x="868.7" y="355.0" type="curve" smooth="yes"/>
      <point x="868.7" y="572.2"/>
      <point x="691.44" y="720.0"/>
      <point x="462.02" y="720.0" type="curve" smooth="yes"/>
      <point x="233.60000000000002" y="720.0"/>
      <point x="55.0" y="572.2"/>
      <point x="55.0" y="355.0" type="curve" smooth="yes"/>
      <point x="55.0" y="138.7"/>
      <point x="233.60000000000002" y="-10.0"/>
    </contour>
    <contour>
      <point x="462.02" y="52.0" type="curve" smooth="yes"/>
      <point x="287.52" y="52.0"/>
      <point x="161.86" y="168.55"/>
      <point x="161.86" y="355.0" type="curve" smooth="yes"/>
      <point x="161.86" y="541.45"/>
      <point x="287.52" y="658.0"/>
      <point x="462.02" y="658.0" type="curve" smooth="yes"/>
      <point x="636.44" y="658.0"/>
      <point x="761.92" y="541.45"/>
      <point x="761.92" y="355.0" type="curve" smooth="yes"/>
      <point x="761.92" y="168.55"/>
      <point x="636.44" y="52.0"/>
    </contour>
  </outline>
</glyph>
<glyph name="S" format="2">
  <advance width="731"/>
  <unicode hex="0053"/>
  <anchor x="402.88" y="741.0" name="top"/>
  <anchor x="402.88" y="0.0" name="bottom"/>
  <outline>
    <contour>
      <point x="398.52" y="51.9" type="curve" smooth="yes"/>
      <point x="268.58000000000004" y="51.9"/>
      <point x="165.48000000000002" y="120.69999999999999"/>
      <point x="127.6" y="221.2" type="curve"/>
      <point x="57.32" y="221.2" type="line"/>
      <point x="57.32" y="0.0" type="line"/>
      <point x="122.66" y="0.0" type="line"/>
      <point x="139.2" y="169.95" type="line"/>
      <point x="129.38" y="174.9"/>
      <point x="109.52" y="156.85"/>
      <point x="90.48" y="174.4" type="curve"/>
      <point x="141.84" y="40.75"/>
      <point x="262.58" y="-10.0"/>
      <point x="402.72" y="-10.0" type="curve" smooth="yes"/>
      <point x="549.2" y="-10.0"/>
      <point x="670.3" y="64.55"/>
      <point x="670.3" y="196.55" type="curve" smooth="yes"/>
      <point x="670.3" y="340.75"/>
      <point x="536.3" y="379.55"/>
      <point x="405.8" y="409.65" type="curve" smooth="yes"/>
      <point x="287.74" y="436.5"/>
      <point x="179.04" y="458.95"/>
      <point x="179.04" y="547.0" type="curve" smooth="yes"/>
      <point x="179.04" y="616.2"/>
      <point x="238.62" y="659.1"/>
      <point x="340.86" y="659.1" type="curve" smooth="yes"/>
      <point x="440.88" y="659.1"/>
      <point x="517.4200000000001" y="608.9"/>
      <point x="554.04" y="523.8" type="curve"/>
      <point x="623.46" y="523.8" type="line"/>
      <point x="623.46" y="710.0" type="line"/>
      <point x="562.3" y="710.0" type="line"/>
      <point x="545.26" y="565.05" type="line"/>
      <point x="558.8199999999999" y="559.9"/>
      <point x="571.84" y="569.9"/>
      <point x="584.72" y="570.05" type="curve"/>
      <point x="531.78" y="689.3"/>
      <point x="440.62" y="720.0"/>
      <point x="332.03999999999996" y="720.0" type="curve" smooth="yes"/>
      <point x="196.8" y="720.0"/>
      <point x="88.78" y="648.55"/>
      <point x="88.78" y="535.75" type="curve" smooth="yes"/>
      <point x="88.78" y="394.35"/>
      <point x="221.12" y="355.3"/>
      <point x="348.12" y="326.2" type="curve" smooth="yes"/>
      <point x="465.1" y="298.85"/>
      <point x="574.5799999999999" y="274.35"/>
      <point x="574.5799999999999" y="172.1" type="curve" smooth="yes"/>
      <point x="574.5799999999999" y="89.15"/>
      <point x="505.26" y="51.9"/>
    </contour>
  </outline>
</glyph>
<glyph name="underscore" format="2">
  <advance width="563.0"/>
  <unicode hex="005F"/>
  <outline>
    <contour>
      <point x="-6.0" y="-93.5" type="line"/>
      <point x="-6.0" y="-155.75" type="line"/>
      <point x="568.5" y="-155.75" type="line"/>
      <point x="568.5" y="-93.5" type="line"/>
    </contour>
  </outline>
</glyph>
<glyph name="AE" format="2">
  <advance width="1150.16"/>
  <unicode hex="00C6"/>
  <anchor x="721.5" y="741.0" name="top"/>
  <outline>
    <contour>
      <point x="8.16" y="0.0" type="line"/>
      <point x="274.5" y="0.0" type="line"/>
      <point x="274.5" y="48.75" type="line"/>
      <point x="256.58000000000004" y="48.75" type="line" smooth="yes"/>
      <point x="212.08" y="48.75"/>
      <point x="158.08" y="55.75"/>
      <point x="158.08" y="66.75" type="curve"/>
      <point x="288.58" y="244.7" type="line"/>
      <point x="571.6800000000001" y="244.7" type="line"/>
      <point x="571.6800000000001" y="60.05" type="line" smooth="yes"/>
      <point x="571.6800000000001" y="51.95"/>
      <point x="514.1800000000001" y="48.75"/>
      <point x="469.6" y="48.75" type="curve" smooth="yes"/>
      <point x="459.1" y="48.75" type="line"/>
      <point x="459.1" y="0.0" type="line"/>
      <point x="1080.2" y="0.0" type="line"/>
      <point x="1080.2" y="217.9" type="line"/>
      <point x="1018.88" y="217.9" type="line"/>
      <point x="1008.3" y="103.65" type="line" smooth="yes"/>
      <point x="1004.8" y="67.65"/>
      <point x="962.8" y="60.65"/>
      <point x="861.8" y="60.65" type="curve" smooth="yes"/>
      <point x="670.3399999999999" y="60.65" type="line"/>
      <point x="670.3399999999999" y="335.3" type="line"/>
      <point x="932.46" y="328.05" type="line"/>
      <point x="932.46" y="398.0" type="line"/>
      <point x="670.3399999999999" y="390.75" type="line"/>
      <point x="670.3399999999999" y="649.35" type="line"/>
      <point x="827.38" y="649.35" type="line" smooth="yes"/>
      <point x="928.8" y="649.35"/>
      <point x="969.8" y="642.35"/>
      <point x="974.3" y="606.35" type="curve" smooth="yes"/>
      <point x="984.8" y="517.1" type="line"/>
      <point x="1045.2" y="517.1" type="line"/>
      <point x="1045.2" y="710.0" type="line"/>
      <point x="358.17999999999995" y="710.0" type="line"/>
      <point x="358.17999999999995" y="661.25" type="line"/>
      <point x="371.5" y="661.25" type="line" smooth="yes"/>
      <point x="429.56" y="661.25"/>
      <point x="484.65999999999997" y="654.05"/>
      <point x="485.06" y="631.15" type="curve"/>
      <point x="96.24000000000001" y="91.75" type="line" smooth="yes"/>
      <point x="71.08" y="56.9"/>
      <point x="56.519999999999996" y="48.75"/>
      <point x="13.740000000000002" y="48.75" type="curve" smooth="yes"/>
      <point x="8.16" y="48.75" type="line"/>
    </contour>
    <contour>
      <point x="321.92" y="298.65" type="line"/>
      <point x="571.6800000000001" y="651.05" type="line"/>
      <point x="571.6800000000001" y="298.65" type="line"/>
    </contour>
  </outline>
</glyph>
<glyph name="Thorn" format="2">
  <advance width="748.28"/>
  <unicode hex="00DE"/>
  <outline>
    <contour>
      <point x="387.08000000000004" y="710.0" type="line"/>
      <point x="53.0" y="710.0" type="line"/>
      <point x="53.0" y="661.25" type="line"/>
      <point x="66.0" y="661.25" type="line" smooth="yes"/>
      <point x="123.5" y="661.25"/>
      <point x="165.5" y="654.25"/>
      <point x="165.5" y="625.25" type="curve" smooth="yes"/>
      <point x="165.5" y="84.75" type="line" smooth="yes"/>
      <point x="165.5" y="55.75"/>
      <point x="123.5" y="48.75"/>
      <point x="66.0" y="48.75" type="curve" smooth="yes"/>
      <point x="53.0" y="48.75" type="line"/>
      <point x="53.0" y="0.0" type="line"/>
      <point x="387.08000000000004" y="0.0" type="line"/>
      <point x="387.08000000000004" y="48.75" type="line"/>
      <point x="355.5" y="48.75" type="line" smooth="yes"/>
      <point x="315.5" y="48.75"/>
      <point x="265.0" y="51.75"/>
      <point x="265.0" y="58.75" type="curve" smooth="yes"/>
      <point x="265.0" y="651.25" type="line" smooth="yes"/>
      <point x="265.0" y="658.25"/>
      <point x="315.5" y="661.25"/>
      <point x="355.5" y="661.25" type="curve" smooth="yes"/>
      <point x="387.08000000000004" y="661.25" type="line"/>
    </contour>
    <contour>
      <point x="203.14" y="153.7" type="line"/>
      <point x="393.82000000000005" y="153.7" type="line" smooth="yes"/>
      <point x="582.9" y="153.7"/>
      <point x="692.98" y="239.45"/>
      <point x="692.98" y="363.25" type="curve" smooth="yes"/>
      <point x="692.98" y="486.75"/>
      <point x="587.4" y="565.4"/>
      <point x="399.82000000000005" y="565.4" type="curve" smooth="yes"/>
      <point x="218.68" y="565.4" type="line"/>
      <point x="203.14" y="504.7" type="line"/>
      <point x="397.72" y="504.7" type="line" smooth="yes"/>
      <point x="526.24" y="504.7"/>
      <point x="586.2" y="451.75"/>
      <point x="586.2" y="363.0" type="curve" smooth="yes"/>
      <point x="586.2" y="273.3"/>
      <point x="525.64" y="214.4"/>
      <point x="391.72" y="214.4" type="curve" smooth="yes"/>
      <point x="203.14" y="214.4" type="line"/>
    </contour>
  </outline>
</glyph>
<glyph name="oslash" format="2">
  <advance width="711.3399999999999"/>
  <unicode hex="00F8"/>
  <anchor x="355.46000000000004" y="551.0" name="top"/>
  <outline>
    <contour>
      <point x="611.44" y="523.0" type="line"/>
      <point x="-2.66" y="-14.8" type="line"/>
      <point x="88.42" y="-14.8" type="line"/>
      <point x="702.52" y="523.0" type="line"/>
    </contour>
    <contour>
      <point x="356.02" y="-10.0" type="curve"/>
      <point x="532.14" y="-10.0"/>
      <point x="658.3" y="97.05"/>
      <point x="658.3" y="254.15" type="curve" smooth="yes"/>
      <point x="658.3" y="410.3"/>
      <point x="532.14" y="518.3"/>
      <point x="356.02" y="518.3" type="curve" smooth="yes"/>
      <point x="180.32" y="518.3"/>
      <point x="54.16" y="411.25"/>
      <point x="54.16" y="254.15" type="curve" smooth="yes"/>
      <point x="54.16" y="97.05"/>
      <point x="180.32" y="-10.0"/>
    </contour>
    <contour>
      <point x="356.02" y="48.9" type="curve"/>
      <point x="223.86" y="48.9"/>
      <point x="151.36" y="125.3"/>
      <point x="151.36" y="254.15" type="curve" smooth="yes"/>
      <point x="151.36" y="379.9"/>
      <point x="229.52176470566" y="459.4"/>
      <point x="356.02" y="459.4" type="curve" smooth="yes"/>
      <point x="488.57529411824" y="459.4"/>
      <point x="561.1800000000001" y="383.0"/>
      <point x="561.1800000000001" y="254.15" type="curve" smooth="yes"/>
      <point x="561.1800000000001" y="128.4"/>
      <point x="483.41999999999996" y="48.9"/>
    </contour>
  </outline>
</glyph>
<glyph name="Hbar" format="2">
  <advance width="975.56"/>
  <unicode hex="0126"/>
  <outline>
    <contour>
      <point x="53.0" y="548.95" type="line"/>
      <point x="53.0" y="495.4" type="line"/>
      <point x="915.8399999999999" y="495.4" type="line"/>
      <point x="915.8399999999999" y="548.95" type="line"/>
    </contour>
    <contour>
      <point x="231.82" y="394.6" type="line"/>
      <point x="231.82" y="335.35" type="line"/>
      <point x="740.7" y="335.35" type="line"/>
      <point x="740.7" y="394.6" type="line"/>
    </contour>
    <contour>
      <point x="53.0" y="0.0" type="line"/>
      <point x="378.0" y="0.0" type="line"/>
      <point x="378.0" y="48.75" type="line"/>
      <point x="367.08000000000004" y="48.75" type="line" smooth="yes"/>
      <point x="322.5" y="48.75"/>
      <point x="265.0" y="51.75"/>
      <point x="265.0" y="58.75" type="curve" smooth="yes"/>
      <point x="265.0" y="651.25" type="line" smooth="yes"/>
      <point x="265.0" y="658.25"/>
      <point x="322.5" y="661.25"/>
      <point x="367.08000000000004" y="661.25" type="curve" smooth="yes"/>
      <point x="378.0" y="661.25" type="line"/>
      <point x="378.0" y="710.0" type="line"/>
      <point x="53.0" y="710.0" type="line"/>
      <point x="53.0" y="661.25" type="line"/>
      <point x="66.0" y="661.25" type="line" smooth="yes"/>
      <point x="123.5" y="661.25"/>
      <point x="165.5" y="654.25"/>
      <point x="165.5" y="625.25" type="curve" smooth="yes"/>
      <point x="165.5" y="84.75" type="line" smooth="yes"/>
      <point x="165.5" y="55.75"/>
      <point x="123.5" y="48.75"/>
      <point x="66.0" y="48.75" type="curve" smooth="yes"/>
      <point x="53.0" y="48.75" type="line"/>
    </contour>
    <contour>
      <point x="590.8399999999999" y="0.0" type="line"/>
      <point x="915.8399999999999" y="0.0" type="line"/>
      <point x="915.8399999999999" y="48.75" type="line"/>
      <point x="902.8399999999999" y="48.75" type="line" smooth="yes"/>
      <point x="845.3399999999999" y="48.75"/>
      <point x="802.8399999999999" y="55.75"/>
      <point x="802.8399999999999" y="84.75" type="curve" smooth="yes"/>
      <point x="802.8399999999999" y="625.25" type="line" smooth="yes"/>
      <point x="802.8399999999999" y="654.25"/>
      <point x="845.3399999999999" y="661.25"/>
      <point x="902.8399999999999" y="661.25" type="curve" smooth="yes"/>
      <point x="915.8399999999999" y="661.25" type="line"/>
      <point x="915.8399999999999" y="710.0" type="line"/>
      <point x="590.8399999999999" y="710.0" type="line"/>
      <point x="590.8399999999999" y="661.25" type="line"/>
      <point x="601.3399999999999" y="661.25" type="line" smooth="yes"/>
      <point x="645.8399999999999" y="661.25"/>
      <point x="703.76" y="658.25"/>
      <point x="703.76" y="651.25" type="curve" smooth="yes"/>
      <point x="703.76" y="58.75" type="line" smooth="yes"/>
      <point x="703.76" y="51.75"/>
      <point x="645.8399999999999" y="48.75"/>
      <point x="601.3399999999999" y="48.75" type="curve" smooth="yes"/>
      <point x="590.8399999999999" y="48.75" type="line"/>
    </contour>
  </outline>
</glyph>
<glyph name="Ldot" format="2">
  <advance width="720.7"/>
  <unicode hex="013F"/>
  <outline>
    <contour>
      <point x="382.5" y="710.0" type="line"/>
      <point x="382.5" y="661.25" type="line"/>
      <point x="369.5" y="661.25" type="line" smooth="yes"/>
      <point x="308.5" y="661.25"/>
      <point x="265.0" y="654.25"/>
      <point x="265.0" y="625.25" type="curve" smooth="yes"/>
      <point x="265.0" y="60.65" type="line"/>
      <point x="446.36" y="60.65" type="line" smooth="yes"/>
      <point x="547.36" y="60.65"/>
      <point x="589.2" y="67.65"/>
      <point x="592.7" y="103.65" type="curve" smooth="yes"/>
      <point x="603.86" y="224.5" type="line"/>
      <point x="667.96" y="224.5" type="line"/>
      <point x="667.96" y="0.0" type="line"/>
      <point x="53.0" y="0.0" type="line"/>
      <point x="53.0" y="48.75" type="line"/>
      <point x="66.0" y="48.75" type="line" smooth="yes"/>
      <point x="123.5" y="48.75"/>
      <point x="165.5" y="55.75"/>
      <point x="165.5" y="84.75" type="curve" smooth="yes"/>
      <point x="165.5" y="625.25" type="line" smooth="yes"/>
      <point x="165.5" y="654.25"/>
      <point x="123.5" y="661.25"/>
      <point x="66.0" y="661.25" type="curve" smooth="yes"/>
      <point x="53.0" y="661.25" type="line"/>
      <point x="53.0" y="710.0" type="line"/>
    </contour>
    <component base="periodcentered" xOffset="429.20000000000005" yOffset="48.0"/>
  </outline>
</glyph>
<glyph name="ogonek" format="2">
  <advance width="705.0"/>
  <unicode hex="02DB"/>
  <anchor x="420.74" y="9.0" name="_right"/>
  <outline>
    <contour>
      <point x="450.4" y="35.4" type="line"/>
      <point x="331.88" y="-21.1"/>
      <point x="251.6" y="-75.65"/>
      <point x="251.6" y="-144.7" type="curve" smooth="yes"/>
      <point x="251.6" y="-202.35"/>
      <point x="304.2" y="-236.5"/>
      <point x="376.12" y="-236.5" type="curve" smooth="yes"/>
      <point x="435.44" y="-236.5"/>
      <point x="468.56" y="-216.85"/>
      <point x="497.96000000000004" y="-188.8" type="curve"/>
      <point x="465.88" y="-153.9" type="line"/>
      <point x="449.12" y="-165.716814782625"/>
      <point x="426.9" y="-181.9"/>
      <point x="399.08000000000004" y="-181.9" type="curve" smooth="yes"/>
      <point x="370.24" y="-181.9"/>
      <point x="348.15999999999997" y="-167.0"/>
      <point x="348.15999999999997" y="-134.3" type="curve" smooth="yes"/>
      <point x="348.15999999999997" y="-93.67161016949"/>
      <point x="378.43799195769463" y="-44.02696723655"/>
      <point x="484.41999999999996" y="8.35" type="curve"/>
    </contour>
  </outline>
</glyph>
<glyph name="tilde" format="2">
  <advance width="587.5799999999999"/>
  <unicode hex="02DC"/>
  <anchor x="294.0" y="516.0" name="_top"/>
  <outline>
    <contour>
      <point x="367.06" y="591.75" type="curve" smooth="yes"/>
      <point x="428.76" y="591.75"/>
      <point x="465.26" y="634.9"/>
      <point x="484.58" y="717.75" type="curve"/>
      <point x="432.76" y="735.5" type="line"/>
      <point x="419.62" y="691.95"/>
      <point x="407.06" y="663.55"/>
      <point x="377.24" y="663.55" type="curve" smooth="yes"/>
      <point x="332.38" y="663.55"/>
      <point x="295.4" y="732.55"/>
      <point x="222.58" y="732.55" type="curve" smooth="yes"/>
      <point x="158.18" y="732.55"/>
      <point x="124.06" y="690.5"/>
      <point x="107.96" y="605.65" type="curve"/>
      <point x="159.36" y="588.95" type="line"/>
      <point x="168.42000000000002" y="635.35"/>
      <point x="183.10000000000002" y="661.8"/>
      <point x="213.48000000000002" y="661.8" type="curve" smooth="yes"/>
      <point x="252.89999999999998" y="661.8"/>
      <point x="286.88" y="591.75"/>
    </contour>
  </outline>
</glyph>
<glyph name="Delta" format="2">
  <advance width="849.52"/>
  <unicode hex="0394"/>
  <outline>
    <contour>
      <point x="51.08" y="0.0" type="line"/>
      <point x="798.86" y="0.0" type="line"/>
      <point x="798.86" y="80.0" type="line"/>
      <point x="482.08000000000004" y="710.0" type="line"/>
      <point x="367.86" y="710.0" type="line"/>
      <point x="51.08" y="80.0" type="line"/>
    </contour>
    <contour>
      <point x="711.12" y="48.5" type="line"/>
      <point x="734.06" y="85.9" type="line"/>
      <point x="87.58" y="85.9" type="line"/>
      <point x="112.06" y="49.0" type="line"/>
      <point x="430.82" y="698.5" type="line"/>
      <point x="391.08000000000004" y="696.65" type="line"/>
    </contour>
  </outline>
</glyph>
<glyph name="perthousand" format="2">
  <advance width="1343.48"/>
  <unicode hex="2030"/>
  <outline>
    <contour>
      <point x="227.16" y="429.9" type="curve" smooth="yes"/>
      <point x="164.06" y="429.9"/>
      <point x="125.6" y="478.3"/>
      <point x="125.6" y="550.75" type="curve" smooth="yes"/>
      <point x="125.6" y="623.15"/>
      <point x="164.06" y="671.5"/>
      <point x="227.16" y="671.5" type="curve" smooth="yes"/>
      <point x="289.84000000000003" y="671.5"/>
      <point x="328.29999999999995" y="623.15"/>
      <point x="328.29999999999995" y="550.75" type="curve" smooth="yes"/>
      <point x="328.29999999999995" y="478.3"/>
      <point x="289.84000000000003" y="429.9"/>
    </contour>
    <contour>
      <point x="227.16" y="381.5" type="curve" smooth="yes"/>
      <point x="335.0" y="381.5"/>
      <point x="412.4" y="453.6"/>
      <point x="412.4" y="550.75" type="curve" smooth="yes"/>
      <point x="412.4" y="648.9"/>
      <point x="335.0" y="720.0"/>
      <point x="227.16" y="720.0" type="curve" smooth="yes"/>
      <point x="118.9" y="720.0"/>
      <point x="41.5" y="647.9"/>
      <point x="41.5" y="550.75" type="curve" smooth="yes"/>
      <point x="41.5" y="452.6"/>
      <point x="118.9" y="381.5"/>
    </contour>
    <contour>
      <point x="145.68" y="0.0" type="line"/>
      <point x="867.84" y="710.0" type="line"/>
      <point x="786.4000000000001" y="710.0" type="line"/>
      <point x="64.24000000000001" y="0.0" type="line"/>
    </contour>
    <contour>
      <point x="683.22" y="38.4" type="curve" smooth="yes"/>
      <point x="620.54" y="38.4"/>
      <point x="582.0799999999999" y="86.8"/>
      <point x="582.0799999999999" y="159.25" type="curve" smooth="yes"/>
      <point x="582.0799999999999" y="231.65"/>
      <point x="620.54" y="280.0"/>
      <point x="683.22" y="280.0" type="curve" smooth="yes"/>
      <point x="745.98" y="280.0"/>
      <point x="784.44" y="231.65"/>
      <point x="784.44" y="159.25" type="curve" smooth="yes"/>
      <point x="784.44" y="86.8"/>
      <point x="745.98" y="38.4"/>
    </contour>
    <contour>
      <point x="683.22" y="-10.0" type="curve" smooth="yes"/>
      <point x="791.48" y="-10.0"/>
      <point x="868.54" y="62.1"/>
      <point x="868.54" y="159.25" type="curve" smooth="yes"/>
      <point x="868.54" y="257.4"/>
      <point x="791.48" y="328.5"/>
      <point x="683.22" y="328.5" type="curve" smooth="yes"/>
      <point x="575.04" y="328.5"/>
      <point x="497.98" y="256.4"/>
      <point x="497.98" y="159.25" type="curve" smooth="yes"/>
      <point x="497.98" y="61.1"/>
      <point x="575.04" y="-10.0"/>
    </contour>
    <contour>
      <point x="1117.94" y="38.4" type="curve" smooth="yes"/>
      <point x="1055.18" y="38.4"/>
      <point x="1016.72" y="86.8"/>
      <point x="1016.72" y="159.25" type="curve" smooth="yes"/>
      <point x="1016.72" y="231.65"/>
      <point x="1055.18" y="280.0"/>
      <point x="1117.94" y="280.0" type="curve" smooth="yes"/>
      <point x="1180.62" y="280.0"/>
      <point x="1219.08" y="231.65"/>
      <point x="1219.08" y="159.25" type="curve" smooth="yes"/>
      <point x="1219.08" y="86.8"/>
      <point x="1180.62" y="38.4"/>
    </contour>
    <contour>
      <point x="1117.94" y="-10.0" type="curve" smooth="yes"/>
      <point x="1226.12" y="-10.0"/>
      <point x="1303.18" y="62.1"/>
      <point x="1303.18" y="159.25" type="curve" smooth="yes"/>
      <point x="1303.18" y="257.4"/>
      <point x="1226.12" y="328.5"/>
      <point x="1117.94" y="328.5" type="curve" smooth="yes"/>
      <point x="1009.6800000000001" y="328.5"/>
      <point x="932.62" y="256.4"/>
      <point x="932.62" y="159.25" type="curve" smooth="yes"/>
      <point x="932.62" y="61.1"/>
      <point x="1009.6800000000001" y="-10.0"/>
    </contour>
  </outline>
</glyph>
<glyph name="ruble" format="2">
  <advance width="658.24"/>
  <unicode hex="20BD"/>
  <outline>
    <contour>
      <point x="47.120000000000005" y="384.65" type="line"/>
      <point x="369.41999999999996" y="384.65" type="line" smooth="yes"/>
      <point x="495.4" y="384.65"/>
      <point x="551.36" y="438.9"/>
      <point x="551.36" y="522.1" type="curve" smooth="yes"/>
      <point x="551.36" y="603.1"/>
      <point x="495.15999999999997" y="651.2"/>
      <point x="374.91999999999996" y="651.2" type="curve" smooth="yes"/>
      <point x="259.12" y="651.2" type="line"/>
      <point x="259.12" y="58.75" type="line" smooth="yes"/>
      <point x="259.12" y="51.75"/>
      <point x="310.04" y="48.75"/>
      <point x="349.62" y="48.75" type="curve" smooth="yes"/>
      <point x="381.62" y="48.75" type="line"/>
      <point x="381.62" y="0.0" type="line"/>
      <point x="47.120000000000005" y="0.0" type="line"/>
      <point x="47.120000000000005" y="48.75" type="line"/>
      <point x="60.04" y="48.75" type="line" smooth="yes"/>
      <point x="117.62" y="48.75"/>
      <point x="160.04" y="55.75"/>
      <point x="160.04" y="84.75" type="curve" smooth="yes"/>
      <point x="160.04" y="625.25" type="line" smooth="yes"/>
      <point x="160.04" y="654.25"/>
      <point x="117.62" y="661.25"/>
      <point x="60.04" y="661.25" type="curve" smooth="yes"/>
      <point x="47.120000000000005" y="661.25" type="line"/>
      <point x="47.120000000000005" y="710.0" type="line"/>
      <point x="376.18" y="710.0" type="line" smooth="yes"/>
      <point x="555.06" y="710.0"/>
      <point x="655.2" y="637.15"/>
      <point x="655.2" y="523.3" type="curve" smooth="yes"/>
      <point x="655.2" y="410.1"/>
      <point x="549.3" y="331.1"/>
      <point x="370.26" y="331.1" type="curve" smooth="yes"/>
      <point x="47.120000000000005" y="331.1" type="line"/>
    </contour>
    <contour>
      <point x="477.0" y="177.2" type="line"/>
      <point x="47.120000000000005" y="177.2" type="line"/>
      <point x="47.120000000000005" y="230.75" type="line"/>
      <point x="477.0" y="230.75" type="line"/>
    </contour>
  </outline>
</glyph>
<glyph name="numero" format="2">
  <advance width="1466.58"/>
  <unicode hex="2116"/>
  <outline>
    <contour>
      <point x="977.6800000000001" y="237.95" type="line"/>
      <point x="1374.76" y="237.95" type="line"/>
      <point x="1374.76" y="180.45" type="line"/>
      <point x="977.6800000000001" y="180.45" type="line"/>
    </contour>
    <component base="N" xOffset="108.22000000000003"/>
    <component base="ordmasculine" xOffset="842.98"/>
  </outline>
</glyph>
<glyph name="radical" format="2">
  <advance width="717.06"/>
  <unicode hex="221A"/>
  <outline>
    <contour>
      <point x="79.19999999999999" y="303.65" type="line"/>
      <point x="250.7" y="303.65" type="line"/>
      <point x="187.57999999999998" y="332.15" type="line"/>
      <point x="317.64" y="0.0" type="line"/>
      <point x="394.66" y="0.0" type="line"/>
      <point x="399.82000000000005" y="38.05" type="line"/>
      <point x="276.15999999999997" y="373.05" type="line"/>
      <point x="79.19999999999999" y="373.05" type="line"/>
    </contour>
    <contour>
      <point x="617.04" y="710.0" type="line"/>
      <point x="358.24" y="0.0" type="line"/>
      <point x="426.56" y="0.0" type="line"/>
      <point x="691.72" y="710.0" type="line"/>
    </contour>
  </outline>
</glyph>
<glyph name="infinity" format="2">
  <advance width="912.0"/>
  <unicode hex="221E"/>
  <outline>
    <contour>
      <point x="260.88" y="153.0" type="curve" smooth="yes"/>
      <point x="143.94" y="153.0"/>
      <point x="59.0" y="235.1"/>
      <point x="59.0" y="352.5" type="curve" smooth="yes"/>
      <point x="59.0" y="470.9"/>
      <point x="151.48000000000002" y="556.0"/>
      <point x="266.6" y="556.0" type="curve" smooth="yes"/>
      <point x="403.32000000000005" y="556.0"/>
      <point x="451.72" y="464.7"/>
      <point x="496.3" y="379.5" type="curve" smooth="yes"/>
      <point x="547.8" y="286.5"/>
      <point x="585.66" y="229.25"/>
      <point x="668.62" y="229.25" type="curve" smooth="yes"/>
      <point x="741.52" y="229.25"/>
      <point x="791.12" y="280.55"/>
      <point x="791.12" y="359.5" type="curve" smooth="yes"/>
      <point x="791.12" y="434.2"/>
      <point x="737.0" y="481.75"/>
      <point x="649.1800000000001" y="481.75" type="curve" smooth="yes"/>
      <point x="562.2" y="481.75"/>
      <point x="509.48" y="430.65"/>
      <point x="482.62" y="368.5" type="curve"/>
      <point x="440.46" y="369.5" type="line"/>
      <point x="464.96" y="469.65"/>
      <point x="541.62" y="556.0"/>
      <point x="651.28" y="556.0" type="curve" smooth="yes"/>
      <point x="768.22" y="556.0"/>
      <point x="853.0" y="473.9"/>
      <point x="853.0" y="356.5" type="curve" smooth="yes"/>
      <point x="853.0" y="238.1"/>
      <point x="761.52" y="153.0"/>
      <point x="644.86" y="153.0" type="curve" smooth="yes"/>
      <point x="514.44" y="153.0"/>
      <point x="458.78" y="235.55"/>
      <point x="415.28" y="331.95" type="curve" smooth="yes"/>
      <point x="373.76" y="420.65"/>
      <point x="327.34000000000003" y="479.75"/>
      <point x="244.26" y="479.75" type="curve" smooth="yes"/>
      <point x="171.48000000000002" y="479.75"/>
      <point x="120.46000000000001" y="428.45"/>
      <point x="120.46000000000001" y="349.75" type="curve" smooth="yes"/>
      <point x="120.46000000000001" y="274.55"/>
      <point x="174.74" y="227.25"/>
      <point x="262.98" y="227.25" type="curve" smooth="yes"/>
      <point x="350.96" y="227.25"/>
      <point x="402.02" y="278.4"/>
      <point x="428.29999999999995" y="340.5" type="curve"/>
      <point x="470.12" y="339.5" type="line"/>
      <point x="446.62" y="239.35"/>
      <point x="371.54" y="153.0"/>
    </contour>
  </outline>
</glyph>
<glyph name="uni25C3" format="2">
  <advance width="899.0"/>
  <unicode hex="25C3"/>
  <outline>
    <contour>
      <point x="828.5" y="-40.0" type="line"/>
      <point x="828.5" y="754.0" type="line"/>
      <point x="23.5" y="357.0" type="line"/>
    </contour>
    <contour>
      <point x="754.5" y="54.0" type="line"/>
      <point x="776.5" y="62.0" type="line"/>
      <point x="168.0" y="363.0" type="line"/>
      <point x="168.0" y="351.0" type="line"/>
      <point x="776.5" y="652.0" type="line"/>
      <point x="754.5" y="660.0" type="line"/>
    </contour>
  </outline>
</glyph>
<glyph name="f_f" format="2">
  <advance width="844.46"/>
  <unicode hex="FB00"/>
  <outline>
    <contour>
      <point x="43.94" y="508.3" type="line"/>
      <point x="43.94" y="449.9" type="line"/>
      <point x="469.53999999999996" y="449.9" type="line"/>
      <point x="469.53999999999996" y="508.3" type="line"/>
    </contour>
    <contour>
      <point x="438.1" y="508.3" type="line"/>
      <point x="438.1" y="449.9" type="line"/>
      <point x="830.12" y="449.9" type="line"/>
      <point x="830.12" y="508.3" type="line"/>
    </contour>
    <contour>
      <point x="261.74" y="56.45" type="curve"/>
      <point x="261.74" y="558.1" type="line" smooth="yes"/>
      <point x="261.74" y="657.45"/>
      <point x="308.34000000000003" y="680.05"/>
      <point x="373.52" y="680.05" type="curve" smooth="yes"/>
      <point x="408.08000000000004" y="680.05"/>
      <point x="438.58000000000004" y="671.2"/>
      <point x="462.32" y="663.55" type="curve"/>
      <point x="462.32" y="727.8" type="line"/>
      <point x="442.08000000000004" y="733.8"/>
      <point x="407.24" y="737.95"/>
      <point x="374.76" y="737.95" type="curve" smooth="yes"/>
      <point x="268.44" y="737.95"/>
      <point x="166.44" y="695.35"/>
      <point x="166.44" y="555.55" type="curve" smooth="yes"/>
      <point x="166.44" y="82.25" type="line" smooth="yes"/>
      <point x="166.44" y="53.7"/>
      <point x="127.44" y="46.55"/>
      <point x="62.94" y="46.55" type="curve" smooth="yes"/>
      <point x="49.94" y="46.55" type="line"/>
      <point x="49.94" y="0.0" type="line"/>
      <point x="363.88" y="0.0" type="line"/>
      <point x="363.88" y="46.55" type="line"/>
      <point x="358.53999999999996" y="46.55" type="line" smooth="yes"/>
      <point x="303.02" y="46.55"/>
      <point x="261.74" y="49.5"/>
    </contour>
    <contour>
      <point x="560.52" y="56.45" type="line"/>
      <point x="560.52" y="49.5"/>
      <point x="520.12" y="46.55"/>
      <point x="457.98" y="46.55" type="curve" smooth="yes"/>
      <point x="444.02" y="46.55" type="line"/>
      <point x="444.02" y="0.0" type="line"/>
      <point x="782.82" y="0.0" type="line"/>
      <point x="782.82" y="46.55" type="line"/>
      <point x="767.32" y="46.55" type="line" smooth="yes"/>
      <point x="703.82" y="46.55"/>
      <point x="655.82" y="49.5"/>
      <point x="655.82" y="56.45" type="curve" smooth="yes"/>
      <point x="655.82" y="570.1" type="line" smooth="yes"/>
      <point x="655.82" y="670.8"/>
      <point x="704.5" y="693.85"/>
      <point x="773.02" y="693.85" type="curve" smooth="yes"/>
      <point x="809.12" y="693.85"/>
      <point x="841.72" y="684.95"/>
      <point x="866.06" y="677.2" type="curve"/>
      <point x="866.06" y="741.6" type="line"/>
      <point x="845.38" y="747.6"/>
      <point x="808.8399999999999" y="751.75"/>
      <point x="774.6800000000001" y="751.75" type="curve" smooth="yes"/>
      <point x="665.86" y="751.75"/>
      <point x="560.52" y="709.15"/>
      <point x="560.52" y="569.35" type="curve"/>
    </contour>
  </outline>
</glyph>
<glyph name="F.alt" format="2">
  <advance width="701.56"/>
  <outline>
    <contour>
      <point x="53.0" y="0.0" type="line"/>
      <point x="395.74" y="0.0" type="line"/>
      <point x="395.74" y="48.75" type="line"/>
      <point x="375.74" y="48.75" type="line" smooth="yes"/>
      <point x="325.24" y="48.75"/>
      <point x="264.15999999999997" y="49.75"/>
      <point x="264.15999999999997" y="84.75" type="curve" smooth="yes"/>
      <point x="264.15999999999997" y="649.35" type="line"/>
      <point x="429.15999999999997" y="649.35" type="line" smooth="yes"/>
      <point x="530.5799999999999" y="649.35"/>
      <point x="571.5799999999999" y="642.35"/>
      <point x="576.16" y="606.35" type="curve" smooth="yes"/>
      <point x="586.66" y="517.95" type="line"/>
      <point x="646.98" y="517.95" type="line"/>
      <point x="646.98" y="710.0" type="line"/>
      <point x="53.0" y="710.0" type="line"/>
      <point x="53.0" y="661.25" type="line"/>
      <point x="66.0" y="661.25" type="line" smooth="yes"/>
      <point x="123.5" y="661.25"/>
      <point x="165.5" y="654.25"/>
      <point x="165.5" y="625.25" type="curve" smooth="yes"/>
      <point x="165.5" y="84.75" type="line" smooth="yes"/>
      <point x="165.5" y="55.75"/>
      <point x="123.5" y="48.75"/>
      <point x="66.0" y="48.75" type="curve" smooth="yes"/>
      <point x="53.0" y="48.75" type="line"/>
    </contour>
    <contour>
      <point x="217.56" y="324.3" type="line"/>
      <point x="455.29999999999995" y="324.3" type="line" smooth="yes"/>
      <point x="490.12" y="324.3"/>
      <point x="501.62" y="293.8"/>
      <point x="501.62" y="260.3" type="curve" smooth="yes"/>
      <point x="501.62" y="254.3" type="line"/>
      <point x="551.02" y="254.3" type="line"/>
      <point x="551.02" y="452.9" type="line"/>
      <point x="501.62" y="452.9" type="line"/>
      <point x="501.62" y="446.9" type="line" smooth="yes"/>
      <point x="501.62" y="412.45"/>
      <point x="490.12" y="381.9"/>
      <point x="455.29999999999995" y="381.9" type="curve" smooth="yes"/>
      <point x="217.56" y="381.9" type="line"/>
    </contour>
  </outline>
</glyph>
<glyph name="acute.uc" format="2">
  <advance width="587.5"/>
  <anchor x="241.28" y="727.0" name="_top"/>
  <outline>
    <contour>
      <point x="285.64" y="874.65" type="curve" smooth="yes"/>
      <point x="206.06" y="788.0" type="line"/>
      <point x="206.06" y="765.5" type="line"/>
      <point x="236.42000000000002" y="765.5" type="line"/>
      <point x="337.4" y="808.4" type="line" smooth="yes"/>
      <point x="377.12" y="827.6"/>
      <point x="402.6" y="849.05"/>
      <point x="402.6" y="875.2" type="curve" smooth="yes"/>
      <point x="402.6" y="897.3"/>
      <point x="384.12" y="917.85"/>
      <point x="356.53999999999996" y="917.85" type="curve" smooth="yes"/>
      <point x="328.58000000000004" y="917.85"/>
      <point x="308.44" y="902.15"/>
    </contour>
  </outline>
</glyph>
<glyph name="caron.alt" format="2">
  <advance width="587.5"/>
  <anchor x="102.94" y="574.0" name="_right"/>
  <outline>
    <contour>
      <point x="175.32" y="526.1" type="line"/>
      <point x="117.5" y="526.1" type="line"/>
      <point x="117.5" y="536.1" type="line"/>
      <point x="138.5" y="710.0" type="line"/>
      <point x="237.82" y="710.0" type="line"/>
    </contour>
  </outline>
</glyph>
<glyph name="cent.proportional" format="2">
  <advance width="658.0"/>
  <outline>
    <contour>
      <point x="320.46" y="623.0" type="line"/>
      <point x="320.46" y="485.1" type="line"/>
      <point x="320.46" y="472.9" type="line"/>
      <point x="320.46" y="27.650000000000002" type="line"/>
      <point x="320.46" y="10.65" type="line"/>
      <point x="320.46" y="-126.0" type="line"/>
      <point x="386.48" y="-126.0" type="line"/>
      <point x="386.48" y="18.6" type="line"/>
      <point x="386.48" y="31.699999999999996" type="line"/>
      <point x="386.48" y="475.2" type="line"/>
      <point x="386.48" y="494.05" type="line"/>
      <point x="386.48" y="623.0" type="line"/>
    </contour>
    <contour>
      <point x="363.02" y="47.65" type="curve" smooth="yes"/>
      <point x="237.28" y="47.65"/>
      <point x="147.88" y="126.506140350875"/>
      <point x="147.88" y="247.4" type="curve" smooth="yes"/>
      <point x="147.88" y="375.389285714275"/>
      <point x="227.18" y="458.7"/>
      <point x="362.0" y="458.7" type="curve" smooth="yes"/>
      <point x="452.1" y="458.7"/>
      <point x="519.26" y="418.9"/>
      <point x="547.34" y="386.85" type="curve"/>
      <point x="557.16" y="406.81331663055"/>
      <point x="539.6800000000001" y="440.612613599375"/>
      <point x="508.74" y="440.15" type="curve"/>
      <point x="508.74" y="328.8" type="line"/>
      <point x="600.52" y="328.8" type="line"/>
      <point x="600.52" y="447.6" type="line"/>
      <point x="570.9" y="470.5"/>
      <point x="486.38" y="518.3"/>
      <point x="362.0" y="518.3" type="curve" smooth="yes"/>
      <point x="172.62" y="518.3"/>
      <point x="48.660000000000004" y="405.1"/>
      <point x="48.660000000000004" y="247.4" type="curve" smooth="yes"/>
      <point x="48.660000000000004" y="95.3"/>
      <point x="184.62" y="-12.1"/>
      <point x="360.08" y="-12.1" type="curve" smooth="yes"/>
      <point x="488.08" y="-12.1"/>
      <point x="562.2" y="43.25"/>
      <point x="609.1800000000001" y="111.4" type="curve"/>
      <point x="558.0" y="151.8" type="line"/>
      <point x="522.02" y="105.714067759375"/>
      <point x="471.70000000000005" y="47.65"/>
    </contour>
  </outline>
</glyph>
<glyph name="circumflex_grave.uc" format="2">
  <advance width="599.0"/>
  <anchor x="287.76" y="696.0" name="_top"/>
  <outline>
    <contour>
      <point x="493.14" y="958.85" type="line" smooth="yes"/>
      <point x="472.42" y="986.2"/>
      <point x="451.16" y="1001.0"/>
      <point x="423.02" y="1001.0" type="curve" smooth="yes"/>
      <point x="396.02" y="1001.0"/>
      <point x="377.38" y="982.35"/>
      <point x="377.38" y="958.6" type="curve" smooth="yes"/>
      <point x="377.38" y="932.25"/>
      <point x="401.04" y="910.2"/>
      <point x="439.82000000000005" y="892.0" type="curve" smooth="yes"/>
      <point x="527.54" y="852.8" type="line"/>
      <point x="555.8" y="852.8" type="line"/>
      <point x="555.8" y="873.2" type="line"/>
    </contour>
    <component base="circumflex.uc" xOffset="49.46000000000001"/>
  </outline>
</glyph>
<glyph name="circumflex_tilde" format="2">
  <advance width="587.5"/>
  <anchor x="287.04" y="551.0" name="_top"/>
  <outline>
    <contour>
      <point x="369.3" y="766.45" type="curve" smooth="yes"/>
      <point x="431.12" y="766.45"/>
      <point x="470.69273041668" y="808.61629317795"/>
      <point x="489.92" y="879.2" type="curve"/>
      <point x="438.52" y="896.95" type="line"/>
      <point x="425.28" y="859.25"/>
      <point x="410.68" y="834.75"/>
      <point x="378.4" y="834.75" type="curve" smooth="yes"/>
      <point x="331.56" y="834.75"/>
      <point x="295.84000000000003" y="894.05"/>
      <point x="223.24" y="894.05" type="curve" smooth="yes"/>
      <point x="157.51999999999998" y="894.05"/>
      <point x="123.84616368305998" y="854.670568445875"/>
      <point x="107.12" y="780.4" type="curve"/>
      <point x="159.01999999999998" y="763.7" type="line"/>
      <point x="168.68" y="804.2"/>
      <point x="182.96" y="826.8"/>
      <point x="215.72" y="826.8" type="curve" smooth="yes"/>
      <point x="256.52" y="826.8"/>
      <point x="290.82" y="766.45"/>
    </contour>
    <contour>
      <point x="337.54" y="721.8" type="line"/>
      <point x="463.70000000000005" y="580.8" type="line"/>
      <point x="463.70000000000005" y="570.1" type="line"/>
      <point x="414.62" y="570.1" type="line"/>
      <point x="274.15999999999997" y="667.95" type="line"/>
      <point x="301.98" y="667.95" type="line"/>
      <point x="161.84" y="570.1" type="line"/>
      <point x="124.03999999999999" y="570.1" type="line"/>
      <point x="124.03999999999999" y="580.8" type="line"/>
      <point x="249.8" y="721.8" type="line"/>
    </contour>
  </outline>
</glyph>
<glyph name="colonsign" format="2">
  <advance width="658.0"/>
  <outline>
    <contour>
      <point x="378.65999999999997" y="701.0" type="curve" smooth="yes"/>
      <point x="163.51999999999998" y="701.0"/>
      <point x="20.939999999999998" y="559.6"/>
      <point x="20.939999999999998" y="355.0" type="curve" smooth="yes"/>
      <point x="20.939999999999998" y="147.6"/>
      <point x="163.07999999999998" y="9.0"/>
      <point x="367.44" y="9.0" type="curve" smooth="yes"/>
      <point x="518.7" y="9.0"/>
      <point x="610.72" y="103.75"/>
      <point x="644.72" y="238.0" type="curve"/>
      <point x="582.0" y="266.8" type="line"/>
      <point x="555.8399999999999" y="149.9"/>
      <point x="489.74" y="67.1"/>
      <point x="373.32" y="67.1" type="curve" smooth="yes"/>
      <point x="215.14" y="67.1"/>
      <point x="118.06" y="173.75"/>
      <point x="118.06" y="355.0" type="curve" smooth="yes"/>
      <point x="118.06" y="531.25"/>
      <point x="214.88" y="643.8"/>
      <point x="378.65999999999997" y="643.8" type="curve" smooth="yes"/>
      <point x="484.79999999999995" y="643.8"/>
      <point x="570.72" y="597.25"/>
      <point x="598.12" y="560.2" type="curve"/>
      <point x="606.92" y="579.6"/>
      <point x="577.6800000000001" y="621.4"/>
      <point x="546.62" y="619.65" type="curve"/>
      <point x="546.62" y="501.95" type="line"/>
      <point x="643.44" y="501.95" type="line"/>
      <point x="643.44" y="628.4" type="line"/>
      <point x="610.5799999999999" y="652.8"/>
      <point x="521.76" y="701.0"/>
    </contour>
    <contour>
      <point x="285.62" y="790.0" type="line"/>
      <point x="141.4" y="-120.0" type="line"/>
      <point x="201.46" y="-120.0" type="line"/>
      <point x="345.68" y="790.0" type="line"/>
    </contour>
    <contour>
      <point x="448.98" y="790.0" type="line"/>
      <point x="304.68" y="-120.0" type="line"/>
      <point x="364.82" y="-120.0" type="line"/>
      <point x="509.04" y="790.0" type="line"/>
    </contour>
  </outline>
</glyph>
<glyph name="f.short" format="2">
  <advance width="459.96000000000004"/>
  <outline>
    <contour>
      <point x="43.94" y="508.3" type="line"/>
      <point x="43.94" y="449.9" type="line"/>
      <point x="429.2" y="449.9" type="line"/>
      <point x="429.2" y="508.3" type="line"/>
    </contour>
    <contour>
      <point x="261.74" y="56.45" type="curve" smooth="yes"/>
      <point x="261.74" y="571.1" type="line" smooth="yes"/>
      <point x="261.74" y="670.85"/>
      <point x="303.46000000000004" y="693.95"/>
      <point x="363.18" y="693.95" type="curve" smooth="yes"/>
      <point x="394.79999999999995" y="693.95"/>
      <point x="423.62" y="686.7"/>
      <point x="443.9" y="679.0" type="curve"/>
      <point x="443.9" y="741.6" type="line"/>
      <point x="426.96000000000004" y="747.55"/>
      <point x="395.2" y="751.75"/>
      <point x="364.42" y="751.75" type="curve" smooth="yes"/>
      <point x="263.56" y="751.75"/>
      <point x="166.44" y="709.15"/>
      <point x="166.44" y="569.35" type="curve" smooth="yes"/>
      <point x="166.44" y="82.25" type="line" smooth="yes"/>
      <point x="166.44" y="53.7"/>
      <point x="127.44" y="46.55"/>
      <point x="62.94" y="46.55" type="curve" smooth="yes"/>
      <point x="49.94" y="46.55" type="line"/>
      <point x="49.94" y="0.0" type="line"/>
      <point x="388.65999999999997" y="0.0" type="line"/>
      <point x="388.65999999999997" y="46.55" type="line"/>
      <point x="373.24" y="46.55" type="line" smooth="yes"/>
      <point x="309.74" y="46.55"/>
      <point x="261.74" y="49.5"/>
    </contour>
  </outline>
</glyph>
<glyph name="f_f_b.alt" format="2">
  <advance width="1585.44"/>
  <outline>
    <contour>
      <point x="261.74" y="56.45" type="curve" smooth="yes"/>
      <point x="261.74" y="549.6" type="line" smooth="yes"/>
      <point x="261.74" y="636.9"/>
      <point x="310.70000000000005" y="674.55"/>
      <point x="433.26" y="674.55" type="curve" smooth="yes"/>
      <point x="519.26" y="674.55"/>
      <point x="574.78" y="652.8"/>
      <point x="609.74" y="606.75" type="curve"/>
      <point x="624.72" y="643.8"/>
      <point x="594.94" y="690.1"/>
      <point x="560.52" y="670.25" type="curve"/>
      <point x="560.52" y="543.95" type="line"/>
      <point x="650.38" y="592.95" type="line"/>
      <point x="650.38" y="673.55" type="line"/>
      <point x="623.5" y="699.1"/>
      <point x="555.38" y="732.25"/>
      <point x="433.26" y="732.25" type="curve" smooth="yes"/>
      <point x="266.18" y="732.25"/>
      <point x="166.44" y="667.8"/>
      <point x="166.44" y="548.9" type="curve" smooth="yes"/>
      <point x="166.44" y="82.25" type="line"/>
      <point x="166.44" y="53.7"/>
      <point x="127.44" y="46.55"/>
      <point x="62.94" y="46.55" type="curve" smooth="yes"/>
      <point x="49.94" y="46.55" type="line"/>
      <point x="49.94" y="0.0" type="line"/>
      <point x="363.88" y="0.0" type="line"/>
      <point x="363.88" y="46.55" type="line"/>
      <point x="358.53999999999996" y="46.55" type="line" smooth="yes"/>
      <point x="303.02" y="46.55"/>
      <point x="261.74" y="49.5"/>
    </contour>
    <contour>
      <point x="772.74" y="0.0" type="line"/>
      <point x="772.74" y="46.55" type="line"/>
      <point x="757.66" y="46.55" type="line" smooth="yes"/>
      <point x="700.04" y="46.55"/>
      <point x="655.82" y="49.5"/>
      <point x="655.82" y="56.45" type="curve" smooth="yes"/>
      <point x="655.82" y="571.2" type="line" smooth="yes"/>
      <point x="655.82" y="670.85"/>
      <point x="712.32" y="693.85"/>
      <point x="799.2" y="693.85" type="curve" smooth="yes"/>
      <point x="874.5799999999999" y="693.85"/>
      <point x="933.76" y="676.35"/>
      <point x="985.06" y="620.05" type="curve"/>
      <point x="989.28" y="698.75" type="line"/>
      <point x="945.78" y="730.5"/>
      <point x="881.28" y="751.75"/>
      <point x="801.3" y="751.75" type="curve" smooth="yes"/>
      <point x="674.0999999999999" y="751.75"/>
      <point x="560.52" y="709.15"/>
      <point x="560.52" y="569.35" type="curve"/>
      <point x="560.52" y="56.45" type="line" smooth="yes"/>
      <point x="560.52" y="49.5"/>
      <point x="518.44" y="46.55"/>
      <point x="460.08" y="46.55" type="curve" smooth="yes"/>
      <point x="444.02" y="46.55" type="line"/>
      <point x="444.02" y="0.0" type="line"/>
    </contour>
    <contour>
      <point x="1430.86" y="257.35" type="curve" smooth="yes"/>
      <point x="1430.86" y="132.75"/>
      <point x="1367.62" y="49.9"/>
      <point x="1247.1999999999998" y="49.9" type="curve" smooth="yes"/>
      <point x="1152.68" y="49.9"/>
      <point x="1079.38" y="97.9"/>
      <point x="1025.94" y="195.8" type="curve"/>
      <point x="983.54" y="172.0" type="line"/>
      <point x="1059.6399999999999" y="44.75"/>
      <point x="1128.8600000000001" y="-10.0"/>
      <point x="1249.8600000000001" y="-10.0" type="curve" smooth="yes"/>
      <point x="1419.2800000000002" y="-10.0"/>
      <point x="1531.76" y="99.25"/>
      <point x="1531.76" y="257.35" type="curve" smooth="yes"/>
      <point x="1531.76" y="414.3"/>
      <point x="1422.94" y="518.3"/>
      <point x="1259.3600000000001" y="518.3" type="curve" smooth="yes"/>
      <point x="1134.06" y="518.3"/>
      <point x="1066.94" y="458.4"/>
      <point x="984.12" y="331.2" type="curve"/>
      <point x="1024.54" y="306.2" type="line"/>
      <point x="1080.22" y="405.65"/>
      <point x="1153.94" y="458.4"/>
      <point x="1252.28" y="458.4" type="curve" smooth="yes"/>
      <point x="1367.94" y="458.4"/>
      <point x="1430.86" y="380.9"/>
    </contour>
    <contour>
      <point x="1049.98" y="734.75" type="line"/>
      <point x="880.26" y="734.75" type="line"/>
      <point x="954.6800000000001" y="688.15" type="line"/>
      <point x="954.6800000000001" y="-2.85" type="line"/>
      <point x="1018.54" y="-2.85" type="line"/>
      <point x="1039.9" y="105.95" type="line"/>
      <point x="1049.98" y="120.4" type="line"/>
    </contour>
    <contour>
      <point x="43.94" y="508.3" type="line"/>
      <point x="43.94" y="449.9" type="line"/>
      <point x="469.53999999999996" y="449.9" type="line"/>
      <point x="469.53999999999996" y="508.3" type="line"/>
    </contour>
    <contour>
      <point x="438.1" y="508.3" type="line"/>
      <point x="438.1" y="449.9" type="line"/>
      <point x="824.24" y="449.9" type="line"/>
      <point x="824.24" y="508.3" type="line"/>
    </contour>
  </outline>
</glyph>
<glyph name="f_f_j" format="2">
  <advance width="1160.62"/>
  <outline>
    <contour>
      <point x="43.94" y="508.3" type="line"/>
      <point x="43.94" y="449.9" type="line"/>
      <point x="454.84000000000003" y="449.9" type="line"/>
      <point x="454.84000000000003" y="508.3" type="line"/>
    </contour>
    <contour>
      <point x="995.04" y="615.85" type="curve" smooth="yes"/>
      <point x="1033.8" y="615.85"/>
      <point x="1062.62" y="639.5"/>
      <point x="1062.62" y="678.65" type="curve" smooth="yes"/>
      <point x="1062.62" y="716.85"/>
      <point x="1033.8" y="740.5"/>
      <point x="995.04" y="740.5" type="curve" smooth="yes"/>
      <point x="955.86" y="740.5"/>
      <point x="927.04" y="716.85"/>
      <point x="927.04" y="678.65" type="curve" smooth="yes"/>
      <point x="927.04" y="639.45"/>
      <point x="955.86" y="615.85"/>
    </contour>
    <contour>
      <point x="438.1" y="508.3" type="line"/>
      <point x="438.1" y="449.9" type="line"/>
      <point x="922.0" y="449.9" type="line"/>
      <point x="922.0" y="508.3" type="line"/>
    </contour>
    <contour>
      <point x="954.6800000000001" y="-43.95" type="line" smooth="yes"/>
      <point x="954.6800000000001" y="-142.4"/>
      <point x="907.6800000000001" y="-172.35"/>
      <point x="835.1199999999999" y="-172.35" type="curve" smooth="yes"/>
      <point x="799.6" y="-172.35"/>
      <point x="771.04" y="-167.05"/>
      <point x="744.04" y="-160.95" type="curve"/>
      <point x="744.04" y="-225.7" type="line"/>
      <point x="765.2" y="-231.75"/>
      <point x="801.8199999999999" y="-236.0"/>
      <point x="838.06" y="-236.0" type="curve" smooth="yes"/>
      <point x="944.0799999999999" y="-236.0"/>
      <point x="1049.98" y="-192.75"/>
      <point x="1049.98" y="-42.35" type="curve" smooth="yes"/>
      <point x="1049.98" y="508.3" type="line"/>
      <point x="854.8399999999999" y="508.3" type="line"/>
      <point x="854.8399999999999" y="449.9" type="line"/>
      <point x="867.6800000000001" y="449.9" type="line" smooth="yes"/>
      <point x="928.52" y="449.9"/>
      <point x="954.6800000000001" y="434.2"/>
      <point x="954.6800000000001" y="405.85" type="curve" smooth="yes"/>
    </contour>
    <contour>
      <point x="261.74" y="56.45" type="curve"/>
      <point x="261.74" y="558.1" type="line" smooth="yes"/>
      <point x="261.74" y="657.45"/>
      <point x="308.34000000000003" y="680.05"/>
      <point x="373.52" y="680.05" type="curve" smooth="yes"/>
      <point x="408.08000000000004" y="680.05"/>
      <point x="438.58000000000004" y="671.2"/>
      <point x="462.32" y="663.55" type="curve"/>
      <point x="462.32" y="727.8" type="line"/>
      <point x="442.08000000000004" y="733.8"/>
      <point x="407.24" y="737.95"/>
      <point x="374.76" y="737.95" type="curve" smooth="yes"/>
      <point x="268.44" y="737.95"/>
      <point x="166.44" y="695.35"/>
      <point x="166.44" y="555.55" type="curve" smooth="yes"/>
      <point x="166.44" y="82.25" type="line" smooth="yes"/>
      <point x="166.44" y="53.7"/>
      <point x="127.44" y="46.55"/>
      <point x="62.94" y="46.55" type="curve" smooth="yes"/>
      <point x="49.94" y="46.55" type="line"/>
      <point x="49.94" y="0.0" type="line"/>
      <point x="363.88" y="0.0" type="line"/>
      <point x="363.88" y="46.55" type="line"/>
      <point x="358.53999999999996" y="46.55" type="line" smooth="yes"/>
      <point x="303.02" y="46.55"/>
      <point x="261.74" y="49.5"/>
    </contour>
    <contour>
      <point x="560.52" y="56.45" type="line"/>
      <point x="560.52" y="49.5"/>
      <point x="520.12" y="46.55"/>
      <point x="457.98" y="46.55" type="curve" smooth="yes"/>
      <point x="444.02" y="46.55" type="line"/>
      <point x="444.02" y="0.0" type="line"/>
      <point x="772.74" y="0.0" type="line"/>
      <point x="772.74" y="46.55" type="line"/>
      <point x="757.66" y="46.55" type="line" smooth="yes"/>
      <point x="700.04" y="46.55"/>
      <point x="655.82" y="49.5"/>
      <point x="655.82" y="56.45" type="curve" smooth="yes"/>
      <point x="655.82" y="571.9" type="line" smooth="yes"/>
      <point x="655.82" y="671.25"/>
      <point x="697.22" y="693.85"/>
      <point x="758.22" y="693.85" type="curve" smooth="yes"/>
      <point x="789.6800000000001" y="693.85"/>
      <point x="820.02" y="686.9"/>
      <point x="841.42" y="679.25" type="curve"/>
      <point x="841.42" y="741.6" type="line"/>
      <point x="823.52" y="747.6"/>
      <point x="789.6800000000001" y="751.75"/>
      <point x="759.46" y="751.75" type="curve" smooth="yes"/>
      <point x="657.3199999999999" y="751.75"/>
      <point x="560.52" y="709.15"/>
      <point x="560.52" y="569.35" type="curve"/>
    </contour>
  </outline>
</glyph>
<glyph name="f_i" format="2">
  <advance width="783.64"/>
  <outline>
    <contour>
      <point x="43.94" y="508.3" type="line"/>
      <point x="43.94" y="449.9" type="line"/>
      <point x="527.92" y="449.9" type="line"/>
      <point x="527.92" y="508.3" type="line"/>
    </contour>
    <contour>
      <point x="601.92" y="615.85" type="curve" smooth="yes"/>
      <point x="640.6800000000001" y="615.85"/>
      <point x="669.5" y="639.5"/>
      <point x="669.5" y="678.65" type="curve" smooth="yes"/>
      <point x="669.5" y="716.85"/>
      <point x="640.6800000000001" y="740.5"/>
      <point x="601.92" y="740.5" type="curve" smooth="yes"/>
      <point x="562.74" y="740.5"/>
      <point x="533.92" y="716.85"/>
      <point x="533.92" y="678.65" type="curve" smooth="yes"/>
      <point x="533.92" y="639.45"/>
      <point x="562.74" y="615.85"/>
    </contour>
    <contour>
      <point x="560.52" y="56.45" type="line"/>
      <point x="560.52" y="49.5"/>
      <point x="507.52" y="46.55"/>
      <point x="474.6" y="46.55" type="curve" smooth="yes"/>
      <point x="461.6" y="46.55" type="line"/>
      <point x="461.6" y="0.0" type="line"/>
      <point x="754.32" y="0.0" type="line"/>
      <point x="754.32" y="46.55" type="line"/>
      <point x="753.1600000000001" y="46.55" type="line" smooth="yes"/>
      <point x="696.6600000000001" y="46.55"/>
      <point x="655.82" y="53.5"/>
      <point x="655.82" y="82.05" type="curve" smooth="yes"/>
      <point x="655.82" y="508.3" type="line"/>
      <point x="460.76" y="508.3" type="line"/>
      <point x="460.76" y="449.9" type="line"/>
      <point x="473.52" y="449.9" type="line" smooth="yes"/>
      <point x="534.36" y="449.9"/>
      <point x="560.52" y="434.2"/>
      <point x="560.52" y="405.85" type="curve"/>
    </contour>
    <contour>
      <point x="378.58000000000004" y="0.0" type="line"/>
      <point x="378.58000000000004" y="46.55" type="line"/>
      <point x="363.58000000000004" y="46.55" type="line" smooth="yes"/>
      <point x="305.96000000000004" y="46.55"/>
      <point x="261.74" y="49.5"/>
      <point x="261.74" y="56.45" type="curve"/>
      <point x="261.74" y="571.9" type="line" smooth="yes"/>
      <point x="261.74" y="671.25"/>
      <point x="303.14" y="693.85"/>
      <point x="364.14" y="693.85" type="curve" smooth="yes"/>
      <point x="395.6" y="693.85"/>
      <point x="425.94" y="686.9"/>
      <point x="447.34000000000003" y="679.25" type="curve"/>
      <point x="447.34000000000003" y="741.6" type="line"/>
      <point x="429.44" y="747.6"/>
      <point x="395.6" y="751.75"/>
      <point x="365.38" y="751.75" type="curve" smooth="yes"/>
      <point x="263.15999999999997" y="751.75"/>
      <point x="166.44" y="709.15"/>
      <point x="166.44" y="569.35" type="curve" smooth="yes"/>
      <point x="166.44" y="82.25" type="line" smooth="yes"/>
      <point x="166.44" y="53.7"/>
      <point x="127.44" y="46.55"/>
      <point x="62.94" y="46.55" type="curve" smooth="yes"/>
      <point x="49.94" y="46.55" type="line"/>
      <point x="49.94" y="0.0" type="line"/>
    </contour>
  </outline>
</glyph>
<glyph name="f_k" format="2">
  <advance width="1152.22"/>
  <outline>
    <contour>
      <point x="1123.8400000000001" y="0.0" type="line"/>
      <point x="1123.8400000000001" y="46.55" type="line"/>
      <point x="1121.76" y="46.55" type="line"/>
      <point x="1078.8200000000002" y="46.55"/>
      <point x="1042.72" y="52.7"/>
      <point x="1008.32" y="84.2" type="curve" smooth="yes"/>
      <point x="767.9000000000001" y="311.4" type="line"/>
      <point x="766.46" y="265.25" type="line"/>
      <point x="952.62" y="413.3" type="line" smooth="yes"/>
      <point x="995.28" y="446.6"/>
      <point x="1038.66" y="461.75"/>
      <point x="1087.06" y="461.75" type="curve"/>
      <point x="1089.56" y="461.75" type="line"/>
      <point x="1089.56" y="508.3" type="line"/>
      <point x="803.9000000000001" y="508.3" type="line"/>
      <point x="803.9000000000001" y="461.75" type="line"/>
      <point x="808.8199999999999" y="461.75" type="line"/>
      <point x="844.46" y="461.75"/>
      <point x="904.38" y="458.75"/>
      <point x="904.38" y="443.75" type="curve"/>
      <point x="688.96" y="273.4" type="line"/>
      <point x="688.96" y="266.95" type="line"/>
      <point x="919.44" y="56.45" type="line"/>
      <point x="919.44" y="49.5"/>
      <point x="867.94" y="46.55"/>
      <point x="834.38" y="46.55" type="curve"/>
      <point x="830.3199999999999" y="46.55" type="line"/>
      <point x="830.3199999999999" y="0.0" type="line"/>
    </contour>
    <contour>
      <point x="43.94" y="508.3" type="line"/>
      <point x="43.94" y="449.9" type="line"/>
      <point x="430.16" y="449.9" type="line"/>
      <point x="430.16" y="508.3" type="line"/>
    </contour>
    <contour>
      <point x="743.82" y="0.0" type="line"/>
      <point x="743.82" y="46.55" type="line"/>
      <point x="740.32" y="46.55" type="line" smooth="yes"/>
      <point x="708.82" y="46.55"/>
      <point x="655.82" y="49.5"/>
      <point x="655.82" y="56.45" type="curve"/>
      <point x="655.82" y="734.75" type="line"/>
      <point x="495.76" y="734.75" type="line"/>
      <point x="560.52" y="697.65" type="line"/>
      <point x="560.52" y="56.45" type="line"/>
      <point x="560.52" y="49.5"/>
      <point x="507.52" y="46.55"/>
      <point x="474.6" y="46.55" type="curve" smooth="yes"/>
      <point x="461.6" y="46.55" type="line"/>
      <point x="461.6" y="0.0" type="line"/>
    </contour>
    <contour>
      <point x="261.74" y="56.45" type="curve" smooth="yes"/>
      <point x="261.74" y="571.2" type="line" smooth="yes"/>
      <point x="261.74" y="670.85"/>
      <point x="318.15999999999997" y="693.85"/>
      <point x="405.12" y="693.85" type="curve" smooth="yes"/>
      <point x="480.5" y="693.85"/>
      <point x="539.6800000000001" y="676.35"/>
      <point x="590.9" y="620.05" type="curve"/>
      <point x="595.2" y="698.75" type="line"/>
      <point x="551.7" y="730.5"/>
      <point x="487.20000000000005" y="751.75"/>
      <point x="407.22" y="751.75" type="curve" smooth="yes"/>
      <point x="279.94" y="751.75"/>
      <point x="166.44" y="709.15"/>
      <point x="166.44" y="569.35" type="curve" smooth="yes"/>
      <point x="166.44" y="82.25" type="line"/>
      <point x="166.44" y="53.7"/>
      <point x="127.44" y="46.55"/>
      <point x="62.94" y="46.55" type="curve" smooth="yes"/>
      <point x="49.94" y="46.55" type="line"/>
      <point x="49.94" y="0.0" type="line"/>
      <point x="378.58000000000004" y="0.0" type="line"/>
      <point x="378.58000000000004" y="46.55" type="line"/>
      <point x="363.58000000000004" y="46.55" type="line" smooth="yes"/>
      <point x="305.96000000000004" y="46.55"/>
      <point x="261.74" y="49.5"/>
    </contour>
  </outline>
</glyph>
<glyph name="four.lin" format="2">
  <advance width="658.0"/>
  <outline>
    <contour>
      <point x="31.740000000000002" y="201.45" type="line"/>
      <point x="634.0999999999999" y="201.45" type="line"/>
      <point x="634.0999999999999" y="272.85" type="line"/>
      <point x="63.9" y="272.85" type="line"/>
      <point x="73.44" y="231.6" type="line"/>
      <point x="411.08" y="664.8" type="line"/>
      <point x="441.28" y="710.0" type="line"/>
      <point x="365.88" y="710.0" type="line"/>
      <point x="31.740000000000002" y="279.55" type="line"/>
    </contour>
    <contour>
      <point x="260.0" y="0.0" type="line"/>
      <point x="622.5999999999999" y="0.0" type="line"/>
      <point x="622.5999999999999" y="48.75" type="line"/>
      <point x="599.6800000000001" y="48.75" type="line" smooth="yes"/>
      <point x="539.38" y="48.75"/>
      <point x="495.44" y="55.75"/>
      <point x="495.44" y="84.75" type="curve" smooth="yes"/>
      <point x="495.44" y="710.0" type="line"/>
      <point x="396.36" y="710.0" type="line"/>
      <point x="396.36" y="666.1" type="line"/>
      <point x="396.36" y="84.75" type="line" smooth="yes"/>
      <point x="396.36" y="55.75"/>
      <point x="353.14" y="48.75"/>
      <point x="285.88" y="48.75" type="curve" smooth="yes"/>
      <point x="260.0" y="48.75" type="line"/>
    </contour>
  </outline>
</glyph>
<glyph name="heartsuitwhite" format="2">
  <advance width="1058.5"/>
  <outline>
    <contour>
      <point x="536.0" y="461.0" type="line"/>
      <point x="572.0" y="541.0"/>
      <point x="646.0" y="641.0"/>
      <point x="753.0" y="641.0" type="curve" smooth="yes"/>
      <point x="841.5" y="641.0"/>
      <point x="890.5" y="594.0"/>
      <point x="890.5" y="528.0" type="curve" smooth="yes"/>
      <point x="890.5" y="446.0"/>
      <point x="842.5" y="397.0"/>
      <point x="764.0" y="316.0" type="curve" smooth="yes"/>
      <point x="534.5" y="83.0" type="line"/>
      <point x="524.0" y="83.0" type="line"/>
      <point x="295.0" y="316.0" type="line" smooth="yes"/>
      <point x="216.0" y="397.0"/>
      <point x="168.0" y="446.0"/>
      <point x="168.0" y="528.0" type="curve" smooth="yes"/>
      <point x="168.0" y="594.0"/>
      <point x="217.5" y="641.0"/>
      <point x="305.5" y="641.0" type="curve" smooth="yes"/>
      <point x="412.5" y="641.0"/>
      <point x="486.5" y="541.0"/>
      <point x="524.0" y="461.0" type="curve"/>
    </contour>
    <contour>
      <point x="516.0" y="-10.0" type="line"/>
      <point x="543.0" y="-10.0" type="line"/>
      <point x="821.5" y="273.0" type="line" smooth="yes"/>
      <point x="921.0" y="375.0"/>
      <point x="976.5" y="437.0"/>
      <point x="976.5" y="535.0" type="curve" smooth="yes"/>
      <point x="976.5" y="632.0"/>
      <point x="899.0" y="710.0"/>
      <point x="762.5" y="710.0" type="curve" smooth="yes"/>
      <point x="653.5" y="710.0"/>
      <point x="574.5" y="657.0"/>
      <point x="530.0" y="569.0" type="curve"/>
      <point x="484.0" y="657.0"/>
      <point x="405.5" y="710.0"/>
      <point x="296.0" y="710.0" type="curve" smooth="yes"/>
      <point x="160.0" y="710.0"/>
      <point x="82.0" y="632.0"/>
      <point x="82.0" y="535.0" type="curve" smooth="yes"/>
      <point x="82.0" y="437.0"/>
      <point x="137.5" y="375.0"/>
      <point x="237.5" y="273.0" type="curve" smooth="yes"/>
    </contour>
  </outline>
</glyph>
<glyph name="naira.proportional" format="2">
  <advance width="883.48"/>
  <outline>
    <contour>
      <point x="52.04" y="0.0" type="line"/>
      <point x="359.53999999999996" y="0.0" type="line"/>
      <point x="359.53999999999996" y="48.75" type="line"/>
      <point x="343.03999999999996" y="48.75" type="line" smooth="yes"/>
      <point x="292.53999999999996" y="48.75"/>
      <point x="235.04" y="56.75"/>
      <point x="235.04" y="63.75" type="curve" smooth="yes"/>
      <point x="235.04" y="694.9" type="line"/>
      <point x="221.2" y="694.7" type="line"/>
      <point x="604.12" y="0.0" type="line"/>
      <point x="727.02" y="0.0" type="line"/>
      <point x="727.02" y="620.5" type="line" smooth="yes"/>
      <point x="727.02" y="649.5"/>
      <point x="769.52" y="661.25"/>
      <point x="827.02" y="661.25" type="curve" smooth="yes"/>
      <point x="841.02" y="661.25" type="line"/>
      <point x="841.02" y="710.0" type="line"/>
      <point x="533.52" y="710.0" type="line"/>
      <point x="533.52" y="661.25" type="line"/>
      <point x="549.6" y="661.25" type="line" smooth="yes"/>
      <point x="600.52" y="661.25"/>
      <point x="658.02" y="653.25"/>
      <point x="658.02" y="646.25" type="curve" smooth="yes"/>
      <point x="658.02" y="37.75" type="line"/>
      <point x="680.0" y="21.700000000000003" type="line"/>
      <point x="304.02" y="710.0" type="line"/>
      <point x="52.04" y="710.0" type="line"/>
      <point x="52.04" y="661.25" type="line"/>
      <point x="65.03999999999999" y="661.25" type="line" smooth="yes"/>
      <point x="122.54" y="661.25"/>
      <point x="164.62" y="654.25"/>
      <point x="164.62" y="625.25" type="curve" smooth="yes"/>
      <point x="164.62" y="89.75" type="line" smooth="yes"/>
      <point x="164.62" y="60.75"/>
      <point x="122.54" y="48.75"/>
      <point x="65.03999999999999" y="48.75" type="curve" smooth="yes"/>
      <point x="52.04" y="48.75" type="line"/>
    </contour>
    <contour>
      <point x="41.0" y="451.25" type="line"/>
      <point x="41.0" y="397.6" type="line"/>
      <point x="211.82" y="397.6" type="line"/>
      <point x="212.92000000000002" y="451.25" type="line"/>
    </contour>
    <contour>
      <point x="421.06" y="398.1" type="line"/>
      <point x="681.9200000000001" y="398.1" type="line"/>
      <point x="693.96" y="397.6" type="line"/>
      <point x="841.98" y="397.6" type="line"/>
      <point x="841.98" y="451.25" type="line"/>
      <point x="405.66" y="451.25" type="line"/>
    </contour>
    <contour>
      <point x="692.28" y="242.15" type="line"/>
      <point x="841.98" y="242.15" type="line"/>
      <point x="841.98" y="295.8" type="line"/>
      <point x="693.72" y="295.8" type="line"/>
    </contour>
    <contour>
      <point x="41.0" y="295.8" type="line"/>
      <point x="41.0" y="242.15" type="line"/>
      <point x="513.36" y="242.15" type="line"/>
      <point x="486.12" y="295.3" type="line"/>
      <point x="199.76" y="295.3" type="line"/>
      <point x="186.60000000000002" y="295.8" type="line"/>
    </contour>
  </outline>
</glyph>
<glyph name="ringhalfleft" format="2">
  <advance width="587.5"/>
  <anchor x="294.0" y="566.0" name="_top"/>
  <outline>
    <contour>
      <point x="295.68" y="607.6" type="line"/>
      <point x="255.44" y="607.6"/>
      <point x="225.8" y="628.25"/>
      <point x="225.8" y="669.6" type="curve" smooth="yes"/>
      <point x="225.8" y="711.0"/>
      <point x="255.44" y="731.6"/>
      <point x="295.68" y="731.6" type="curve"/>
      <point x="295.68" y="768.25" type="line"/>
      <point x="220.86" y="768.25"/>
      <point x="162.39999999999998" y="732.25"/>
      <point x="162.39999999999998" y="669.6" type="curve" smooth="yes"/>
      <point x="162.39999999999998" y="606.95"/>
      <point x="221.01999999999998" y="570.95"/>
      <point x="295.68" y="570.95" type="curve"/>
    </contour>
  </outline>
</glyph>
<glyph name="ringhalfright" format="2">
  <advance width="587.5"/>
  <anchor x="293.58000000000004" y="566.0" name="_top"/>
  <outline>
    <contour>
      <point x="291.9" y="768.25" type="line"/>
      <point x="366.64" y="768.25"/>
      <point x="425.1" y="732.25"/>
      <point x="425.1" y="669.6" type="curve" smooth="yes"/>
      <point x="425.1" y="606.95"/>
      <point x="366.48" y="570.95"/>
      <point x="291.9" y="570.95" type="curve"/>
      <point x="291.9" y="607.6" type="line"/>
      <point x="332.06" y="607.6"/>
      <point x="361.7" y="628.25"/>
      <point x="361.7" y="669.6" type="curve" smooth="yes"/>
      <point x="361.7" y="711.0"/>
      <point x="332.06" y="731.6"/>
      <point x="291.9" y="731.6" type="curve"/>
    </contour>
  </outline>
</glyph>
<glyph name="rupeeIndian.proportional" format="2">
  <advance width="706.0799999999999"/>
  <outline>
    <contour>
      <point x="83.36" y="520.85" type="line"/>
      <point x="83.36" y="466.55" type="line"/>
      <point x="666.36" y="466.55" type="line"/>
      <point x="666.36" y="520.85" type="line"/>
    </contour>
    <contour>
      <point x="159.5" y="281.5" type="line"/>
      <point x="183.92" y="281.5" type="line" smooth="yes"/>
      <point x="394.6" y="281.5"/>
      <point x="518.66" y="369.2"/>
      <point x="518.66" y="496.35" type="curve" smooth="yes"/>
      <point x="518.66" y="585.7"/>
      <point x="447.18" y="652.0"/>
      <point x="298.38" y="672.25" type="curve"/>
      <point x="261.86" y="688.6"/>
      <point x="201.98000000000002" y="695.65"/>
      <point x="255.96" y="655.8" type="curve"/>
      <point x="666.36" y="655.8" type="line"/>
      <point x="666.36" y="710.0" type="line"/>
      <point x="83.36" y="710.0" type="line"/>
      <point x="83.36" y="650.85" type="line"/>
      <point x="204.38" y="650.85" type="line" smooth="yes"/>
      <point x="341.56" y="650.85"/>
      <point x="411.8" y="592.15"/>
      <point x="411.8" y="497.45" type="curve" smooth="yes"/>
      <point x="411.8" y="399.1"/>
      <point x="347.15999999999997" y="335.6"/>
      <point x="164.18" y="335.6" type="curve" smooth="yes"/>
      <point x="83.36" y="335.6" type="line"/>
      <point x="83.36" y="291.5" type="line"/>
      <point x="431.91999999999996" y="0.0" type="line"/>
      <point x="575.74" y="0.0" type="line"/>
      <point x="575.74" y="48.65" type="line"/>
      <point x="561.34" y="48.65" type="line" smooth="yes"/>
      <point x="522.6" y="48.65"/>
      <point x="501.08" y="56.65"/>
      <point x="475.20000000000005" y="76.65" type="curve" smooth="yes"/>
      <point x="172.4" y="318.05" type="line"/>
    </contour>
  </outline>
</glyph>
<glyph name="seven.lin" format="2">
  <advance width="658.0"/>
  <outline>
    <contour>
      <point x="282.7" y="628.85" type="line" smooth="yes"/>
      <point x="181.7" y="628.85"/>
      <point x="140.62" y="621.85"/>
      <point x="135.7" y="585.85" type="curve" smooth="yes"/>
      <point x="125.2" y="496.75" type="line"/>
      <point x="68.24000000000001" y="496.75" type="line"/>
      <point x="68.24000000000001" y="710.0" type="line"/>
      <point x="623.04" y="710.0" type="line"/>
      <point x="623.04" y="630.6" type="line"/>
      <point x="484.86" y="463.15"/>
      <point x="360.38" y="307.1"/>
      <point x="327.78" y="0.0" type="curve"/>
      <point x="223.78" y="0.0" type="line"/>
      <point x="260.72" y="301.5"/>
      <point x="488.5" y="579.95"/>
      <point x="564.7" y="644.1" type="curve"/>
      <point x="576.72" y="628.85" type="line"/>
    </contour>
  </outline>
</glyph>
<glyph name="six.old" format="2">
  <advance width="658.0"/>
  <outline>
    <contour>
      <point x="529.3199999999999" y="678.5" type="line"/>
      <point x="299.48334812278" y="643.2496951709751"/>
      <point x="144.78" y="498.7"/>
      <point x="144.78" y="299.25" type="curve" smooth="yes"/>
      <point x="144.78" y="125.8"/>
      <point x="225.7501840485" y="51.5"/>
      <point x="344.1" y="51.5" type="curve" smooth="yes"/>
      <point x="452.6176978415" y="51.5"/>
      <point x="516.52" y="121.2"/>
      <point x="516.52" y="228.05" type="curve" smooth="yes"/>
      <point x="516.52" y="325.2"/>
      <point x="465.04751999999996" y="389.6"/>
      <point x="356.84000000000003" y="389.6" type="curve" smooth="yes"/>
      <point x="247.00735751264" y="389.6"/>
      <point x="174.72" y="325.35"/>
      <point x="127.44" y="242.5" type="curve"/>
      <point x="113.60000000000001" y="296.6" type="line"/>
      <point x="148.96200531361998" y="371.68183200182494"/>
      <point x="240.75500000028" y="451.1"/>
      <point x="369.58" y="451.1" type="curve" smooth="yes"/>
      <point x="515.35450237014" y="451.1"/>
      <point x="618.26" y="367.55"/>
      <point x="618.26" y="228.5" type="curve" smooth="yes"/>
      <point x="618.26" y="89.5"/>
      <point x="504.36202531594" y="-10.0"/>
      <point x="344.1" y="-10.0" type="curve" smooth="yes"/>
      <point x="174.19581395384" y="-10.0"/>
      <point x="45.980000000000004" y="91.5"/>
      <point x="45.980000000000004" y="295.0" type="curve" smooth="yes"/>
      <point x="45.980000000000004" y="511.1"/>
      <point x="234.39552910469996" y="699.1292607312749"/>
      <point x="518.7" y="740.0" type="curve"/>
    </contour>
  </outline>
</glyph>
<glyph name="yen.proportional" format="2">
  <advance width="724.64"/>
  <outline>
    <contour>
      <point x="88.24000000000001" y="355.0" type="line"/>
      <point x="88.24000000000001" y="300.9" type="line"/>
      <point x="639.4200000000001" y="300.9" type="line"/>
      <point x="639.4200000000001" y="355.0" type="line"/>
    </contour>
    <contour>
      <point x="88.24000000000001" y="224.9" type="line"/>
      <point x="88.24000000000001" y="170.8" type="line"/>
      <point x="639.4200000000001" y="170.8" type="line"/>
      <point x="639.4200000000001" y="224.9" type="line"/>
    </contour>
    <contour>
      <point x="15.82" y="710.0" type="line"/>
      <point x="15.82" y="661.25" type="line"/>
      <point x="21.4" y="661.25" type="line" smooth="yes"/>
      <point x="57.620000000000005" y="661.25"/>
      <point x="83.92" y="660.1"/>
      <point x="102.92" y="635.25" type="curve" smooth="yes"/>
      <point x="338.79999999999995" y="318.7" type="line"/>
      <point x="389.86" y="318.6" type="line"/>
      <point x="610.88" y="620.25" type="line" smooth="yes"/>
      <point x="636.88" y="656.15"/>
      <point x="667.0999999999999" y="661.25"/>
      <point x="702.9000000000001" y="661.25" type="curve" smooth="yes"/>
      <point x="708.9000000000001" y="661.25" type="line"/>
      <point x="708.9000000000001" y="710.0" type="line"/>
      <point x="448.98" y="710.0" type="line"/>
      <point x="448.98" y="661.25" type="line"/>
      <point x="466.48" y="661.25" type="line" smooth="yes"/>
      <point x="507.2" y="661.25"/>
      <point x="555.16" y="654.25"/>
      <point x="555.16" y="643.25" type="curve"/>
      <point x="353.88" y="363.15" type="line"/>
      <point x="403.58" y="364.2" type="line"/>
      <point x="188.60000000000002" y="651.25" type="line"/>
      <point x="188.60000000000002" y="658.25"/>
      <point x="239.06" y="661.25"/>
      <point x="277.28" y="661.25" type="curve" smooth="yes"/>
      <point x="297.28" y="661.25" type="line"/>
      <point x="297.28" y="710.0" type="line"/>
    </contour>
    <contour>
      <point x="195.7" y="0.0" type="line"/>
      <point x="532.28" y="0.0" type="line"/>
      <point x="532.28" y="48.75" type="line"/>
      <point x="512.52" y="48.75" type="line" smooth="yes"/>
      <point x="454.94" y="48.75"/>
      <point x="412.52" y="55.75"/>
      <point x="412.52" y="84.75" type="curve" smooth="yes"/>
      <point x="412.52" y="363.7" type="line"/>
      <point x="315.12" y="363.7" type="line"/>
      <point x="315.12" y="84.75" type="line" smooth="yes"/>
      <point x="315.12" y="55.75"/>
      <point x="273.03999999999996" y="48.75"/>
      <point x="215.54" y="48.75" type="curve" smooth="yes"/>
      <point x="195.7" y="48.75" type="line"/>
    </contour>
  </outline>
</glyph>
<glyph name="zero.slashold" format="2">
  <advance width="658.0"/>
  <outline>
    <contour>
      <point x="153.78" y="103.0" type="line"/>
      <point x="534.04" y="386.55" type="line"/>
      <point x="508.88" y="443.0" type="line"/>
      <point x="125.2" y="156.6" type="line"/>
    </contour>
    <contour>
      <point x="329.0" y="47.9" type="curve" smooth="yes"/>
      <point x="211.82" y="47.9"/>
      <point x="140.76" y="134.0"/>
      <point x="140.76" y="273.0" type="curve" smooth="yes"/>
      <point x="140.76" y="411.1"/>
      <point x="211.82" y="499.1"/>
      <point x="329.0" y="499.1" type="curve" smooth="yes"/>
      <point x="446.17999999999995" y="499.1"/>
      <point x="517.24" y="411.1"/>
      <point x="517.24" y="273.0" type="curve" smooth="yes"/>
      <point x="517.24" y="133.05"/>
      <point x="446.17999999999995" y="47.9"/>
    </contour>
    <contour>
      <point x="329.0" y="-11.95" type="curve" smooth="yes"/>
      <point x="499.54" y="-11.95"/>
      <point x="618.98" y="103.6"/>
      <point x="618.98" y="273.0" type="curve" smooth="yes"/>
      <point x="618.98" y="442.45"/>
      <point x="499.54" y="558.0"/>
      <point x="329.0" y="558.0" type="curve" smooth="yes"/>
      <point x="159.3" y="558.0"/>
      <point x="39.019999999999996" y="442.45"/>
      <point x="39.019999999999996" y="273.0" type="curve" smooth="yes"/>
      <point x="39.019999999999996" y="103.6"/>
      <point x="159.3" y="-11.95"/>
    </contour>
  </outline>
</glyph>
